/vscmnt/brussel_pixiu_data/_data_brussel/112/vsc11236/PredSimResults/SUBJ06mtu3D/worker4.mot
version=1
nRows=6
nColumns=50
inDegrees=yes
endheader
                time	         pelvis_tilt	         pelvis_list	     pelvis_rotation	           pelvis_tx	           pelvis_ty	           pelvis_tz	       hip_flexion_r	     hip_adduction_r	      hip_rotation_r	        knee_angle_r	       ankle_angle_r	         mtp_angle_r	       hip_flexion_l	     hip_adduction_l	      hip_rotation_l	        knee_angle_l	       ankle_angle_l	         mtp_angle_l	    lumbar_extension	      lumbar_bending	     lumbar_rotation	 ercspn_r/activation	 intobl_r/activation	 extobl_r/activation	    abd_r/activation	    add_r/activation	hamstrings_r/activation	bifemsh_r/activation	glut_max_r/activation	iliopsoas_r/activation	rect_fem_r/activation	  vasti_r/activation	gastroc_r/activation	 soleus_r/activation	tib_ant_r/activation	 ercspn_l/activation	 intobl_l/activation	 extobl_l/activation	    abd_l/activation	    add_l/activation	hamstrings_l/activation	bifemsh_l/activation	glut_max_l/activation	iliopsoas_l/activation	rect_fem_l/activation	  vasti_l/activation	gastroc_l/activation	 soleus_l/activation	tib_ant_l/activation	
          1.88816097	         -5.46576159	          1.18900144	         -5.50529294	          2.11474029	          0.93080644	          0.01179377	        -12.29509452	         -0.47136317	          1.00216519	         -7.82295752	          9.55149919	         29.99040128	         30.65908132	         -0.44806540	         -2.54121600	         -5.09477440	          3.35293966	          0.22063612	         -6.50737800	          0.79640282	         -1.76747175	          0.07917489	          0.00999999	          0.00999999	          0.05969990	          0.00999999	          0.02118009	          0.15731368	          0.05178535	          0.46581991	          0.00999999	          0.00999999	          0.41003546	          0.33816500	          0.02142139	          0.14914673	          0.16392614	          0.00999999	          0.00999999	          0.13286370	          0.16169958	          0.24430576	          0.02137965	          0.17102539	          0.00999999	          0.00999999	          0.02941515	          0.00999999	          0.40856972	
          1.90074871	         -5.54435865	          1.11421363	         -5.53662246	          2.13183000	          0.92879546	          0.01105506	        -12.63233459	         -0.49513651	          0.55968174	         -8.96171167	          8.79527954	         31.94532512	         30.74644313	         -0.33056129	         -2.39046066	         -6.82441800	          2.95504868	          0.20568286	         -6.19009189	          0.55555218	         -1.39549415	          0.10921999	          0.00999999	          0.00999999	          0.04934709	          0.05085121	          0.01883173	          0.13003326	          0.04280504	          0.47081182	          0.01000000	          0.01456989	          0.38176153	          0.31941531	          0.01770662	          0.12774923	          0.14363181	          0.00999999	          0.00999999	          0.16418207	          0.14618869	          0.20193969	          0.07045166	          0.14136717	          0.00999999	          0.00999999	          0.02591551	          0.01801109	          0.41881034	
          1.91333645	         -5.60626941	          1.05271158	         -5.52823622	          2.14925109	          0.92706825	          0.01022109	        -12.80788335	         -0.53959546	          0.09751588	        -10.43530895	          7.88323592	         33.97472462	         30.64334009	         -0.22598845	         -2.19398539	         -8.40983719	          2.56351402	          0.19645133	         -5.85882213	          0.29102973	         -1.02126899	          0.10016683	          0.00999999	          0.00999999	          0.04078961	          0.04203289	          0.02739473	          0.10748366	          0.03538204	          0.47099052	          0.00999999	          0.02142139	          0.34918467	          0.29636855	          0.01463604	          0.12801126	          0.11872403	          0.00999999	          0.05563146	          0.14241690	          0.13114216	          0.16692049	          0.10674816	          0.11685211	          0.00999999	          0.00999999	          0.02142139	          0.01488771	          0.50214833	
          1.92592419	         -5.65287932	          0.98777122	         -5.47716166	          2.16675186	          0.92580121	          0.00927542	        -12.74180963	         -0.58831836	         -0.38951672	        -12.34474695	          6.76431991	         36.06435259	         30.42325305	         -0.11827243	         -2.05154600	         -9.77051662	          1.96247576	          0.17272222	         -5.54447722	          0.02410361	         -0.65481973	          0.13205491	          0.00999999	          0.00999999	          0.03371611	          0.06441770	          0.05142241	          0.08884447	          0.02924629	          0.46178930	          0.01000004	          0.01770662	          0.29548916	          0.25512442	          0.01209794	          0.14234661	          0.09813560	          0.00999999	          0.11325406	          0.20442199	          0.11409165	          0.13797412	          0.14313914	          0.09658830	          0.00999999	          0.00999999	          0.01770662	          0.01230597	          0.54341565	
          1.93851193	         -5.68224495	          0.92433522	         -5.38952400	          2.18415111	          0.92510193	          0.00823559	        -12.35445358	         -0.65095172	         -0.90683714	        -14.80943523	          5.43460531	         38.11523341	         30.16578807	          0.00070419	         -1.94672304	        -11.12146220	          1.56364053	          0.13968944	         -5.26353618	         -0.25104396	         -0.29897662	          0.16317890	          0.00999999	          0.00999999	          0.02786926	          0.12226244	          0.04250511	          0.07343759	          0.02417457	          0.43504208	          0.00999999	          0.01463604	          0.24424716	          0.21088224	          0.00999999	          0.15127856	          0.08111750	          0.00999999	          0.16088758	          0.24361240	          0.10138937	          0.11404746	          0.18283965	          0.07983852	          0.00999999	          0.01733377	          0.01463604	          0.01196844	          0.56153918	
          1.95109967	         -5.69427495	          0.86831193	         -5.26881807	          2.20128759	          0.92505462	          0.00712770	        -11.59074495	         -0.73959852	         -1.46790314	        -17.89545202	          3.89341460	         39.91177087	         29.89465333	          0.13454728	         -1.86039981	        -12.49885173	          1.44775471	          0.11238907	         -5.02660060	         -0.54124791	          0.04251362	          0.18890098	          0.00999999	          0.00999999	          0.02303634	          0.19476715	          0.05595883	          0.06070247	          0.01998236	          0.38656729	          0.00999999	          0.01209794	          0.20189125	          0.17431228	          0.00999999	          0.14985848	          0.06705058	          0.00999999	          0.18848072	          0.25003193	          0.09226997	          0.09427002	          0.18918189	          0.06599340	          0.00999999	          0.06843520	          0.01209794	          0.00999999	          0.56727922	
